<svg width="250.313" height="250.313" xmlns="http://www.w3.org/2000/svg">

 <g>
  <title>background</title>
  <rect fill="none" id="canvas_background" height="402" width="582" y="-1" x="-1"/>
 </g>
 <g>
  <title>Layer 1</title>
  <g opacity="0.35" id="Search">
   <path fill="#ffffff" id="svg_1" fill-rule="evenodd" clip-rule="evenodd" d="m245.186005,215.604004l-54.378998,-54.377991c-0.289001,-0.289001 -0.628006,-0.490997 -0.930008,-0.76001c10.699997,-16.231003 16.945007,-35.659996 16.945007,-56.554001c0,-56.837002 -46.075012,-102.912003 -102.911003,-102.912003s-102.911003,46.075001 -102.911003,102.911003c0,56.834999 46.074001,102.911003 102.910004,102.911003c20.894997,0 40.323013,-6.244995 56.554001,-16.944992c0.268997,0.300995 0.470001,0.639999 0.759003,0.929001l54.380005,54.37999c8.168991,8.167999 21.412994,8.167999 29.582993,0c8.167999,-8.169006 8.167999,-21.41301 0,-29.582001zm-141.275002,-44.458008c-37.134003,0 -67.236004,-30.10199 -67.236004,-67.234993c0,-37.134003 30.103001,-67.236004 67.236004,-67.236004c37.131996,0 67.234993,30.103001 67.234993,67.236004c0,37.133003 -30.102997,67.234993 -67.234993,67.234993z"/>
  </g>
 </g>
</svg>
